<svg width="103" height="27" xmlns="http://www.w3.org/2000/svg"><g fill="none" fill-rule="evenodd"><path d="M23.182 23H18.93V3.272h4.32l5.524 11.785h.26V3.272h4.252V23h-4.32l-5.524-11.894h-.26V23zM40.6 26.008h-3.746L46.138.264h3.841L40.6 26.008zM76.94 23h-5.017V3.272h13.098v4.033h-8.08v4.498h7.3v3.842h-7.3V23zm17.31 0h-5.018V3.272h13.098v4.033h-8.08v4.498h7.3v3.842h-7.3V23z" fill="#000"/><g transform="translate(0 1)"><path d="M16.66 13.596c0 5.51-2.939 8.804-7.86 8.804S.94 19.105.94 13.596v-2.912c0-5.51 2.939-8.804 7.86-8.804s7.86 3.295 7.86 8.804v2.912z" fill="#FF1744"/><rect fill="#FFF" x="12.66" y="7.14" width="2" height="10" rx="1"/></g><g transform="translate(52 1)"><path d="M16.59 13.592c0 5.51-2.94 8.804-7.861 8.804-4.922 0-7.862-3.294-7.862-8.804V10.68c0-5.51 2.94-8.805 7.862-8.805 4.921 0 7.86 3.295 7.86 8.805v2.912z" fill="#2979FF"/><rect fill="#FFF" x="12.58" y="7.14" width="2" height="10" rx="1"/></g></g></svg>